<svg width="32" height="32" viewBox="0 0 32 32" fill="none" xmlns="http://www.w3.org/2000/svg">
<path d="M23 17C22.9961 18.3569 22.5979 19.6833 21.854 20.818C21.11 21.9527 20.0523 22.8468 18.8095 23.3913C17.5667 23.9359 16.1924 24.1076 14.8539 23.8854C13.5154 23.6633 12.2702 23.0569 11.27 22.14L12.69 20.73C13.4103 21.3662 14.2987 21.7814 15.2489 21.9258C16.1991 22.0701 17.1707 21.9376 18.0475 21.5441C18.9243 21.1505 19.6691 20.5126 20.1927 19.7067C20.7164 18.9008 20.9966 17.9611 21 17V12.42L30 3.42L28.59 2L2 28.59L3.41 30L9.85 23.56C11.2615 24.8933 13.0699 25.729 15 25.94V28H11V30H21V28H17V25.94C19.1994 25.6941 21.231 24.6465 22.7068 22.9973C24.1825 21.3482 24.9989 19.2131 25 17V14H23V17ZM9 17.32V14H7V17C7.0013 17.704 7.08521 18.4055 7.25 19.09L9 17.32ZM20.76 5.58C20.3987 4.45355 19.6498 3.49167 18.6463 2.86532C17.6427 2.23896 16.4496 1.9887 15.279 2.15902C14.1083 2.32934 13.036 2.9092 12.2526 3.79555C11.4691 4.68189 11.0253 5.81731 11 7V15.34L20.76 5.58Z" fill="white"/>
</svg>
