<svg width="23" height="23" viewBox="0 0 23 23" fill="none" xmlns="http://www.w3.org/2000/svg">
<path d="M17.377 21.2578C16.543 21.2578 15.3715 20.9562 13.6173 19.9761C11.484 18.7798 9.834 17.6754 7.71229 15.5592C5.66664 13.5148 4.67116 12.1912 3.27791 9.65594C1.70393 6.7934 1.97224 5.29291 2.27217 4.65161C2.62935 3.88513 3.15657 3.4267 3.83803 2.97168C4.22509 2.71808 4.6347 2.50069 5.06166 2.32227C5.10439 2.30389 5.14412 2.28638 5.17958 2.27057C5.39107 2.17529 5.7115 2.03131 6.11739 2.18512C6.38826 2.2868 6.63008 2.49487 7.00862 2.86871C7.78493 3.63434 8.84578 5.33948 9.23714 6.17688C9.49989 6.74127 9.67378 7.11383 9.67421 7.53168C9.67421 8.02087 9.42812 8.39813 9.12947 8.8053C9.0735 8.88177 9.01796 8.95483 8.96413 9.02576C8.63899 9.453 8.56764 9.57648 8.61464 9.79694C8.70991 10.24 9.42042 11.5589 10.5881 12.724C11.7558 13.8891 13.0366 14.5547 13.4814 14.6496C13.7113 14.6987 13.8373 14.6244 14.2782 14.2877C14.3414 14.2394 14.4064 14.1895 14.4743 14.1395C14.9298 13.8007 15.2895 13.561 15.7672 13.561H15.7697C16.1854 13.561 16.5413 13.7413 17.1309 14.0386C17.9 14.4266 19.6564 15.4738 20.4267 16.2509C20.8014 16.6286 21.0103 16.8696 21.1124 17.14C21.2662 17.5472 21.1214 17.8663 21.027 18.08C21.0112 18.1154 20.9937 18.1543 20.9753 18.1974C20.7955 18.6236 20.5768 19.0324 20.322 19.4185C19.8679 20.0978 19.4077 20.6238 18.6395 20.9814C18.2451 21.168 17.8134 21.2625 17.377 21.2578Z" fill="white"/>
</svg>
