<svg width="28" height="28" viewBox="0 0 28 28" fill="none" xmlns="http://www.w3.org/2000/svg">
<path d="M4.25 4.99902C3.65326 4.99902 3.08097 5.23608 2.65901 5.65803C2.23705 6.07999 2 6.65229 2 7.24902V20.749C1.99987 21.0446 2.05797 21.3373 2.17098 21.6104C2.284 21.8835 2.44971 22.1316 2.65866 22.3407C2.8676 22.5497 3.11568 22.7155 3.38873 22.8287C3.66178 22.9418 3.95444 23 4.25 23H23.75C24.3467 23 24.919 22.763 25.341 22.341C25.7629 21.9191 26 21.3468 26 20.75V7.25002C26 6.65329 25.7629 6.08099 25.341 5.65903C24.919 5.23708 24.3467 5.00002 23.75 5.00002L4.25 4.99902ZM14.528 8.84002L17.783 12.095C17.9196 12.2365 17.9951 12.426 17.9933 12.6227C17.9915 12.8193 17.9125 13.0074 17.7734 13.1464C17.6342 13.2854 17.4461 13.3642 17.2495 13.3658C17.0528 13.3674 16.8634 13.2917 16.722 13.155L14.748 11.181V18.628C14.748 18.8269 14.669 19.0177 14.5283 19.1584C14.3877 19.299 14.1969 19.378 13.998 19.378C13.7991 19.378 13.6083 19.299 13.4677 19.1584C13.327 19.0177 13.248 18.8269 13.248 18.628V11.183L11.278 13.155C11.2088 13.2267 11.1261 13.2839 11.0346 13.3232C10.9431 13.3626 10.8447 13.3833 10.7452 13.3842C10.6456 13.3851 10.5468 13.3662 10.4546 13.3285C10.3624 13.2909 10.2787 13.2352 10.2082 13.1648C10.1378 13.0944 10.082 13.0107 10.0443 12.9186C10.0065 12.8264 9.9875 12.7277 9.98832 12.6281C9.98913 12.5285 10.0098 12.4301 10.049 12.3385C10.0883 12.247 10.1454 12.1642 10.217 12.095L13.467 8.84102C13.5367 8.77133 13.6194 8.71604 13.7104 8.67832C13.8014 8.6406 13.899 8.62118 13.9975 8.62118C14.096 8.62118 14.1936 8.6406 14.2846 8.67832C14.3756 8.71604 14.4583 8.77033 14.528 8.84002Z" fill="white"/>
</svg>
