<svg width="23" height="23" viewBox="0 0 23 23" fill="none" xmlns="http://www.w3.org/2000/svg">
<path d="M14.8083 18.5234H3.18726C2.82466 18.5234 2.47691 18.3794 2.22051 18.123C1.96411 17.8666 1.82007 17.5189 1.82007 17.1562V6.21875C1.82007 5.85615 1.96411 5.5084 2.22051 5.252C2.47691 4.9956 2.82466 4.85156 3.18726 4.85156H14.8083C15.171 4.85156 15.5187 4.9956 15.7751 5.252C16.0315 5.5084 16.1755 5.85615 16.1755 6.21875V8.99414L19.8806 6.34863C19.9826 6.27599 20.1027 6.23277 20.2276 6.2237C20.3525 6.21462 20.4775 6.24004 20.589 6.29718C20.7004 6.35432 20.794 6.44098 20.8596 6.5477C20.9251 6.65442 20.9601 6.7771 20.9607 6.90234V16.4727C20.9601 16.5979 20.9251 16.7206 20.8596 16.8273C20.794 16.934 20.7004 17.0207 20.589 17.0778C20.4775 17.135 20.3525 17.1604 20.2276 17.1513C20.1027 17.1422 19.9826 17.099 19.8806 17.0264L16.1755 14.3809V17.1562C16.1755 17.5189 16.0315 17.8666 15.7751 18.123C15.5187 18.3794 15.171 18.5234 14.8083 18.5234Z" fill="white"/>
</svg>
