<svg width="32" height="32" viewBox="0 0 32 32" fill="none" xmlns="http://www.w3.org/2000/svg">
<path d="M20.31 6H4.00003C3.4696 6 2.96089 6.21071 2.58582 6.58579C2.21074 6.96086 2.00003 7.46957 2.00003 8V24C1.99511 24.0966 1.99511 24.1934 2.00003 24.29L20.31 6ZM29.46 8.11C29.3011 8.03407 29.1249 8.00148 28.9493 8.01553C28.7737 8.02958 28.6049 8.08977 28.46 8.19L23 12.06V10.44L30 3.44L28.56 2L2.00003 28.56L3.44003 30L7.44003 26H21C21.5305 26 22.0392 25.7893 22.4142 25.4142C22.7893 25.0391 23 24.5304 23 24V19.94L28.42 23.81C28.5693 23.9163 28.7449 23.9795 28.9276 23.9928C29.1103 24.006 29.2932 23.9689 29.4562 23.8853C29.6193 23.8017 29.7562 23.6749 29.8521 23.5188C29.948 23.3627 29.9992 23.1832 30 23V9C30.0004 8.81637 29.9502 8.63618 29.855 8.47919C29.7597 8.3222 29.6231 8.19447 29.46 8.11Z" fill="white"/>
</svg>
